#tb 0: 1/25
#media_type 0: video
#codec_id 0: rawvideo
#dimensions 0: 352x288
#sar 0: 1/1
0,          1,          1,        1,   152064, 0x0af8a873
0,          2,          2,        1,   152064, 0xaeb99897
0,          3,          3,        1,   152064, 0x8f3712c8
0,          4,          4,        1,   152064, 0x5bf6a64c
0,          5,          5,        1,   152064, 0x262de352
